<svg xmlns="http://www.w3.org/2000/svg" viewBox="0 0 100 100">
  <!-- Napoleon -->
  <rect width="100" height="100" fill="#0A1428"/>
  <path d="M22 100 L30 74 Q50 80 70 74 L78 100Z" fill="#1A2E50"/>
  <rect x="26" y="72" width="48" height="8" fill="#E8E0C8"/>
  <!-- Bicorne hat - LARGE and iconic -->
  <path d="M8 46 L50 28 L92 46 L85 52 L50 40 L15 52Z" fill="#0A0A0A"/>
  <path d="M8 46 L15 52 L15 56 L8 50Z" fill="#1A1A1A"/>
  <path d="M92 46 L85 52 L85 56 L92 50Z" fill="#1A1A1A"/>
  <path d="M15 52 L85 52 L85 56 L15 56Z" fill="#141414"/>
  <!-- Hat gold trim -->
  <path d="M8 46 L50 28 L92 46" stroke="#C8A020" stroke-width="2" fill="none"/>
  <path d="M15 52 L85 52" stroke="#C8A020" stroke-width="1.5" fill="none"/>
  <!-- Cockade -->
  <circle cx="50" cy="38" r="4" fill="#CC2020"/>
  <circle cx="50" cy="38" r="2" fill="#2020CC"/>
  <circle cx="50" cy="38" r="0.8" fill="white"/>
  <!-- Face -->
  <ellipse cx="50" cy="62" rx="16" ry="18" fill="#E0C090"/>
  <ellipse cx="42" cy="59" rx="3.5" ry="2" fill="white"/>
  <circle cx="42" cy="59" r="1.5" fill="#1A0A08"/>
  <ellipse cx="58" cy="59" rx="3.5" ry="2" fill="white"/>
  <circle cx="58" cy="59" r="1.5" fill="#1A0A08"/>
  <path d="M47 66 Q50 70 53 66" stroke="#A07840" stroke-width="1.5" fill="none" stroke-linecap="round"/>
</svg>
